# xmcd
#
# Track frame offsets:
#	150
#	17738
#	30660
#	44605
#	59130
#	72650
#	90643
#	104405
#	118508
#	137130
#	149863
#	162893
#
# Disc length: 2389 seconds
#
# Revision: 2
# Processed by: cddbd v1.5.1PL2 Copyright (c) Steve Scherf et al.
# Submitted via: EasyCDDAExtractor 9.0.0.1
#
DISCID=ba09530c
DTITLE=HANNEKEN - BESESSEN
DYEAR=1992
DGENRE=Blues
TTITLE0=BESESSEN
TTITLE1=SAVOIR FAIRE
TTITLE2=LOVE (WAS HAB´ICH DIR GETAN?)
TTITLE3=JEDES WORT IST EIN STÜCK VON MIR
TTITLE4=SAGE MIR EINEN GRUND
TTITLE5=HALTE MICH EIN WENIG FESTER
TTITLE6=LIEBE MICH NUR NOCH EIN MAL
TTITLE7=GEFÜHLE VERDERBEN
TTITLE8=LOVE and EMOTION
TTITLE9=BIST DU EINSAM HEUT´NACHT
TTITLE10=VIELLEICHT MORGEN
TTITLE11=MIXED UP SHOOK UP GIRL (DIESE GANZ SPEZIELLE FRAU)
EXTD=
EXTT0=
EXTT1=
EXTT2=
EXTT3=
EXTT4=
EXTT5=
EXTT6=
EXTT7=
EXTT8=
EXTT9=
EXTT10=
EXTT11=
PLAYORDER=
